<svg width="124" height="142" viewBox="0 0 124 142" fill="none" xmlns="http://www.w3.org/2000/svg">
<path fill-rule="evenodd" clip-rule="evenodd" d="M39.4213 140.368C42.7115 140.989 46.131 141.3 49.68 141.3C59.04 141.3 67.44 139.14 74.88 134.82C82.32 130.38 88.2 124.38 92.52 116.82C96.96 109.26 99.18 100.74 99.18 91.26V9.18C99.18 6.42 98.34 4.2 96.66 2.52C94.98 0.839998 92.76 0 90 0C87.36 0 85.14 0.839998 83.34 2.52C81.66 4.2 80.82 6.42 80.82 9.18V57.78C76.74 52.74 71.7 48.78 65.7 45.9C59.7 42.9 53.16 41.4 46.08 41.4C37.32 41.4 29.46 43.62 22.5 48.06C15.54 52.38 10.02 58.32 5.94 65.88C1.98 73.32 0 81.78 0 91.26C0 100.74 2.16 109.26 6.48 116.82C6.48514 116.829 6.49028 116.838 6.49543 116.846C6.06596 114.825 5.84 112.729 5.84 110.58C5.84 94.0114 19.2715 80.58 35.84 80.58C52.4085 80.58 65.84 94.0114 65.84 110.58C65.84 125.937 54.3015 138.598 39.4213 140.368ZM102.779 139.044C104.634 140.196 106.73 140.772 109.066 140.772C111.403 140.772 113.499 140.196 115.354 139.044C116.498 138.314 117.49 137.432 118.331 136.399V138.18C118.331 138.884 118.555 139.476 119.003 139.956C119.482 140.404 120.075 140.628 120.779 140.628C121.483 140.628 122.059 140.404 122.507 139.956C122.987 139.476 123.227 138.884 123.227 138.18V127.476C123.227 124.948 122.635 122.676 121.451 120.66C120.299 118.644 118.73 117.06 116.746 115.908C114.763 114.724 112.522 114.132 110.027 114.132C107.531 114.132 105.274 114.724 103.258 115.908C101.274 117.06 99.6905 118.644 98.5065 120.66C97.3545 122.676 96.7785 124.948 96.7785 127.476C96.7785 130.004 97.3065 132.276 98.3625 134.292C99.4505 136.276 100.923 137.86 102.779 139.044Z" fill="#6E57E0"/>
</svg>
