<svg width="115" height="129" viewBox="0 0 115 129" fill="none" xmlns="http://www.w3.org/2000/svg">
<path d="M39.744 113.04C32.256 113.04 25.488 111.312 19.44 107.856C13.488 104.304 8.736 99.504 5.184 93.456C1.728 87.408 0 80.592 0 73.008C0 65.424 1.584 58.656 4.752 52.704C8.016 46.656 12.432 41.904 18 38.448C23.568 34.896 29.856 33.12 36.864 33.12C42.528 33.12 47.76 34.32 52.56 36.72C57.36 39.024 61.392 42.192 64.656 46.224V7.344C64.656 5.136 65.328 3.36 66.672 2.016C68.112 0.672 69.888 0 72 0C74.208 0 75.984 0.672 77.328 2.016C78.672 3.36 79.344 5.136 79.344 7.344V73.008C79.344 80.592 77.568 87.408 74.016 93.456C70.56 99.504 65.856 104.304 59.904 107.856C53.952 111.312 47.232 113.04 39.744 113.04ZM39.744 100.08C44.64 100.08 49.008 98.928 52.848 96.624C56.688 94.224 59.712 90.96 61.92 86.832C64.128 82.704 65.232 78.096 65.232 73.008C65.232 67.824 64.128 63.216 61.92 59.184C59.712 55.152 56.688 51.984 52.848 49.68C49.008 47.28 44.64 46.08 39.744 46.08C34.944 46.08 30.576 47.28 26.64 49.68C22.8 51.984 19.728 55.152 17.424 59.184C15.216 63.216 14.112 67.824 14.112 73.008C14.112 78.096 15.216 82.704 17.424 86.832C19.728 90.96 22.8 94.224 26.64 96.624C30.576 98.928 34.944 100.08 39.744 100.08Z" fill="#6E57E0"/>
<path fill-rule="evenodd" clip-rule="evenodd" d="M44.7043 116.308C47.1322 118.888 49.8966 121.119 52.9974 123C58.8534 126.456 65.4774 128.184 72.8694 128.184C79.8774 128.184 86.1174 126.6 91.5891 123.432C96.1319 120.769 99.8759 117.371 102.821 113.238V121.992C102.821 123.624 103.349 124.968 104.405 126.024C105.461 126.984 106.805 127.464 108.437 127.464C110.069 127.464 111.413 126.984 112.469 126.024C113.525 124.968 114.053 123.624 114.053 121.992V88.152C113.957 80.472 112.133 73.608 108.581 67.56C105.125 61.512 100.373 56.7599 94.3251 53.3039C90.9178 51.2705 87.2429 49.819 83.3006 48.9497V59.4844C85.2538 60.132 87.1047 60.9999 88.8534 62.088C93.2691 64.68 96.7251 68.232 99.2211 72.744C101.813 77.256 103.109 82.392 103.109 88.152C103.109 93.816 101.813 98.952 99.2211 103.56C96.7251 108.072 93.2691 111.624 88.8534 114.216C84.5334 116.808 79.5894 118.104 74.0214 118.104C68.5494 118.104 63.6054 116.808 59.1894 114.216C58.5118 113.818 57.8557 113.398 57.2211 112.955C53.3143 114.67 49.142 115.787 44.7043 116.308ZM65.237 59.3478C64.7923 58.2175 64.2799 57.1227 63.6997 56.0632C62.5557 53.9741 61.2169 52.0912 59.6835 50.4145C58.6072 50.8097 57.5518 51.2529 56.517 51.7441C59.3461 53.9755 61.7281 56.7666 63.5029 59.9544C64.0733 59.7328 64.6514 59.5306 65.237 59.3478ZM47.3422 100.881C44.6607 101.673 41.7976 102.069 38.7531 102.069C37.8612 102.069 36.9826 102.033 36.1172 101.963C35.9737 101.53 35.8376 101.094 35.7086 100.654C37.1062 100.882 38.5396 101 40.0001 101C42.4214 101 44.7682 100.675 47.001 100.066C47.1107 100.339 47.2244 100.611 47.3422 100.881Z" fill="#6E57E0"/>
</svg>
